<?xml version="1.0" encoding="utf-8"?>
<!-- Generator: Adobe Illustrator 16.0.0, SVG Export Plug-In . SVG Version: 6.00 Build 0)  -->
<!DOCTYPE svg PUBLIC "-//W3C//DTD SVG 1.1//EN" "http://www.w3.org/Graphics/SVG/1.1/DTD/svg11.dtd">
<svg version="1.1" id="Layer_1" xmlns="http://www.w3.org/2000/svg" xmlns:xlink="http://www.w3.org/1999/xlink" x="0px" y="0px"
	 width="100px" height="70.654px" viewBox="0 0 100 70.654" enable-background="new 0 0 100 70.654" xml:space="preserve">
<path fill="#FFFFFF" d="M37.422,15.712v22.082c0,1.239-1.065,2.255-2.329,2.255c-1.264,0-2.305-1.016-2.305-2.255V15.712H17.77
	v25.898c0,4.659,1.562,10.558,8.798,12.491c7.212,1.908,11.351-2.082,11.351-2.082c-0.396,2.627-2.825,4.56-6.815,4.956
	c-3.023,0.298-6.865-0.719-8.773-1.512v13.73c4.882,1.462,10.037,1.933,15.143,0.917c9.194-1.76,14.994-9.442,14.994-19.703V15.613
	H37.422 M94.895,35.043v-4.288h4.659V15.762h-5.105C92.491,6.716,84.461,0,74.845,0c-11.054,0-20.05,8.997-20.05,20.05v35.018
	c3.147,0.446,6.915-0.05,10.111-2.751c3.321-2.726,4.833-7.261,4.833-11.499v-1.313h7.584V24.486H69.74V19.95
	c0-2.825,2.28-5.105,5.105-5.105s5.105,2.28,5.105,5.105v15.043c0,11.078,8.996,20.074,20.05,20.074V40.099
	C97.174,40.099,94.895,37.844,94.895,35.043z M0,1.165h15.192v40.769c0,6.469,2.924,10.285,5.303,11.921
	c-2.478,2.156-9.987,4.089-15.663-0.57C1.512,50.558,0,46.022,0,41.785V1.165z"/>
</svg>
